<svg width="680" height="560" viewBox="0 0 680 560" xmlns="http://www.w3.org/2000/svg" font-family="Inter, system-ui, -apple-system, sans-serif">
<rect x="0" y="0" width="680" height="560" fill="#0D1F2D"/>
<text x="40" y="30" fill="#F4F5F0" font-size="17" font-weight="700">Baseleap Console — current schema (7 tables)</text>
<text x="40" y="48" fill="#8CA3B0" font-size="12">clients is the hub · everything keys to it via client_id · gaps is the bridge</text>

<!-- clients hub -->
<rect x="270" y="70" width="140" height="118" rx="10" fill="#0F6E56" stroke="#1D9E75" stroke-width="1.5"/>
<text x="340" y="90" fill="#E1F5EE" font-size="13" font-weight="700" text-anchor="middle">clients</text>
<line x1="278" y1="98" x2="402" y2="98" stroke="#1D9E75" stroke-width="0.5"/>
<text x="284" y="114" fill="#9FE1CB" font-size="11">id  PK</text>
<text x="284" y="130" fill="#9FE1CB" font-size="11">operator_id  FK</text>
<text x="284" y="146" fill="#9FE1CB" font-size="11">business_name</text>
<text x="284" y="162" fill="#9FE1CB" font-size="11">current_stack  jsonb</text>
<text x="284" y="178" fill="#9FE1CB" font-size="11">status · ghl_location_id</text>

<!-- audit_sessions -->
<rect x="40" y="230" width="150" height="70" rx="10" fill="#993556" stroke="#D4537E"/>
<text x="115" y="250" fill="#FBEAF0" font-size="13" font-weight="700" text-anchor="middle">audit_sessions</text>
<line x1="48" y1="258" x2="182" y2="258" stroke="#D4537E" stroke-width="0.5"/>
<text x="54" y="274" fill="#F4C0D1" font-size="11">client_id  FK</text>
<text x="54" y="290" fill="#F4C0D1" font-size="11">transcript · summary</text>

<!-- gaps -->
<rect x="265" y="230" width="150" height="102" rx="10" fill="#993556" stroke="#D4537E" stroke-width="1.5"/>
<text x="340" y="250" fill="#FBEAF0" font-size="13" font-weight="700" text-anchor="middle">gaps</text>
<line x1="273" y1="258" x2="407" y2="258" stroke="#D4537E" stroke-width="0.5"/>
<text x="279" y="274" fill="#F4C0D1" font-size="11">client_id  FK</text>
<text x="279" y="290" fill="#F4C0D1" font-size="11">audit_session_id  FK</text>
<text x="279" y="306" fill="#F4C0D1" font-size="11">validation_status</text>
<text x="279" y="322" fill="#FAC775" font-size="11">matched_engine · selection</text>

<!-- gap_reports -->
<rect x="490" y="230" width="150" height="70" rx="10" fill="#993556" stroke="#D4537E"/>
<text x="565" y="250" fill="#FBEAF0" font-size="13" font-weight="700" text-anchor="middle">gap_reports</text>
<line x1="498" y1="258" x2="632" y2="258" stroke="#D4537E" stroke-width="0.5"/>
<text x="504" y="274" fill="#F4C0D1" font-size="11">client_id  FK</text>
<text x="504" y="290" fill="#F4C0D1" font-size="11">reads validated gaps</text>

<!-- proposals -->
<rect x="490" y="330" width="150" height="56" rx="10" fill="#993C1D" stroke="#D85A30"/>
<text x="565" y="350" fill="#FAECE7" font-size="13" font-weight="700" text-anchor="middle">proposals</text>
<line x1="498" y1="358" x2="632" y2="358" stroke="#D85A30" stroke-width="0.5"/>
<text x="504" y="374" fill="#F5C4B3" font-size="11">client_id  FK</text>

<!-- client_files -->
<rect x="40" y="330" width="150" height="56" rx="10" fill="#0F6E56" stroke="#1D9E75"/>
<text x="115" y="350" fill="#E1F5EE" font-size="13" font-weight="700" text-anchor="middle">client_files</text>
<line x1="48" y1="358" x2="182" y2="358" stroke="#1D9E75" stroke-width="0.5"/>
<text x="54" y="374" fill="#9FE1CB" font-size="11">client_id  FK</text>

<!-- build_plans -->
<rect x="265" y="410" width="150" height="56" rx="10" fill="#993C1D" stroke="#D85A30"/>
<text x="340" y="430" fill="#FAECE7" font-size="13" font-weight="700" text-anchor="middle">build_plans</text>
<line x1="273" y1="438" x2="407" y2="438" stroke="#D85A30" stroke-width="0.5"/>
<text x="279" y="454" fill="#F5C4B3" font-size="11">client_id  FK · title · status</text>

<!-- build_steps -->
<rect x="265" y="490" width="150" height="56" rx="10" fill="#993C1D" stroke="#D85A30" stroke-width="1.5"/>
<text x="340" y="510" fill="#FAECE7" font-size="13" font-weight="700" text-anchor="middle">build_steps</text>
<line x1="273" y1="518" x2="407" y2="518" stroke="#D85A30" stroke-width="0.5"/>
<text x="279" y="534" fill="#F5C4B3" font-size="11">build_plan_id FK · depends_on</text>

<!-- relationships from clients hub -->
<path d="M270 150 L115 150 L115 228" fill="none" stroke="#5F5E5A" stroke-width="1"/>
<path d="M270 120 L115 120 L115 328" fill="none" stroke="#5F5E5A" stroke-width="1"/>
<line x1="340" y1="188" x2="340" y2="228" stroke="#5F5E5A" stroke-width="1"/>
<path d="M410 150 L565 150 L565 228" fill="none" stroke="#5F5E5A" stroke-width="1"/>
<path d="M410 130 L565 130 L565 328" fill="none" stroke="#5F5E5A" stroke-width="1"/>
<path d="M410 165 L440 165 L440 438 L413 438" fill="none" stroke="#5F5E5A" stroke-width="1"/>

<!-- discovery chain -->
<line x1="190" y1="270" x2="263" y2="270" stroke="#D4537E" stroke-width="1.2"/>
<path d="M258 266 L263 270 L258 274" fill="none" stroke="#D4537E" stroke-width="1.2"/>

<!-- delivery chain -->
<line x1="340" y1="466" x2="340" y2="488" stroke="#D85A30" stroke-width="1.2"/>
<path d="M336 484 L340 488 L344 484" fill="none" stroke="#D85A30" stroke-width="1.2"/>

<!-- gaps bridges to build_steps -->
<path d="M340 332 L230 332 L230 518 L263 518" fill="none" stroke="#FAC775" stroke-width="1.2" stroke-dasharray="5 3"/>
<text x="150" y="500" fill="#FAC775" font-size="10">gaps → build_steps</text>
</svg>
