<svg width="680" height="440" viewBox="0 0 680 440" xmlns="http://www.w3.org/2000/svg" font-family="Inter, system-ui, sans-serif">
<rect width="680" height="440" fill="#0D1F2D"/>
<defs><marker id="a" viewBox="0 0 10 10" refX="8" refY="5" markerWidth="6" markerHeight="6" orient="auto-start-reverse"><path d="M2 1L8 5L2 9" fill="none" stroke="context-stroke" stroke-width="1.5" stroke-linecap="round" stroke-linejoin="round"/></marker></defs>
<text x="40" y="28" fill="#F4F5F0" font-size="15" font-weight="700">Engine catalog \u2014 the three-way sweep</text>
<rect x="40" y="44" width="150" height="52" rx="10" fill="#993556" stroke="#D4537E"/>
<text x="115" y="66" fill="#FBEAF0" font-size="13" font-weight="700" text-anchor="middle">gap</text>
<text x="115" y="84" fill="#F4C0D1" font-size="11" text-anchor="middle">matched_engine</text>
<rect x="265" y="44" width="150" height="52" rx="10" fill="#2C2C2A" stroke="#888780"/>
<text x="340" y="66" fill="#D3D1C7" font-size="13" font-weight="700" text-anchor="middle">sweep</text>
<text x="340" y="84" fill="#B4B2A9" font-size="11" text-anchor="middle">match on engine_key</text>
<rect x="490" y="44" width="150" height="52" rx="10" fill="#0C447C" stroke="#378ADD"/>
<text x="565" y="66" fill="#E6F1FB" font-size="13" font-weight="700" text-anchor="middle">engine_catalog</text>
<text x="565" y="84" fill="#B5D4F4" font-size="11" text-anchor="middle">read client_parameters</text>
<line x1="190" y1="70" x2="261" y2="70" stroke="#888780" stroke-width="1.5" marker-end="url(#a)"/>
<line x1="415" y1="70" x2="486" y2="70" stroke="#888780" stroke-width="1.5" marker-end="url(#a)"/>
<rect x="35" y="200" width="190" height="64" rx="10" fill="#0F6E56" stroke="#1D9E75"/>
<text x="130" y="224" fill="#E1F5EE" font-size="13" font-weight="700" text-anchor="middle">DROP-IN</text>
<text x="130" y="244" fill="#9FE1CB" font-size="11" text-anchor="middle">params empty \u00b7 deploy as-is</text>
<rect x="245" y="200" width="190" height="64" rx="10" fill="#2E2856" stroke="#7F77DD"/>
<text x="340" y="224" fill="#CECBF6" font-size="13" font-weight="700" text-anchor="middle">PARAMETERIZE</text>
<text x="340" y="244" fill="#AFA9EC" font-size="11" text-anchor="middle">params set \u00b7 adapt to client</text>
<rect x="455" y="200" width="190" height="64" rx="10" fill="#854F0B" stroke="#BA7517"/>
<text x="550" y="224" fill="#FAEEDA" font-size="13" font-weight="700" text-anchor="middle">FORMULATE</text>
<text x="550" y="244" fill="#FAC775" font-size="11" text-anchor="middle">no match \u00b7 AI designs</text>
<path d="M565 96 L565 140 L130 140 L130 198" fill="none" stroke="#888780" stroke-width="1.5" marker-end="url(#a)"/>
<path d="M565 96 L565 140 L340 140 L340 198" fill="none" stroke="#888780" stroke-width="1.5" marker-end="url(#a)"/>
<path d="M565 96 L565 140 L550 140 L550 198" fill="none" stroke="#888780" stroke-width="1.5" marker-end="url(#a)"/>
<text x="130" y="134" fill="#B4B2A9" font-size="11" text-anchor="middle">match + empty</text>
<text x="340" y="134" fill="#B4B2A9" font-size="11" text-anchor="middle">match + populated</text>
<text x="565" y="178" fill="#B4B2A9" font-size="11" text-anchor="middle">no match</text>
<rect x="245" y="300" width="190" height="52" rx="10" fill="#2E2856" stroke="#7F77DD"/>
<text x="340" y="320" fill="#AFA9EC" font-size="11" text-anchor="middle">AI adapts + reports</text>
<text x="340" y="338" fill="#AFA9EC" font-size="11" text-anchor="middle">"changes made" to confirm</text>
<line x1="340" y1="264" x2="340" y2="296" stroke="#888780" stroke-width="1.5" marker-end="url(#a)"/>
<path d="M550 264 L550 326 L438 326" fill="none" stroke="#888780" stroke-width="1" stroke-dasharray="5 3" marker-end="url(#a)"/>
<path d="M245 388 L130 388 L130 410" fill="none" stroke="#5DCAA5" stroke-width="1" stroke-dasharray="5 3"/>
<text x="550" y="392" fill="#5DCAA5" font-size="11" text-anchor="middle">built + tested</text>
<text x="550" y="408" fill="#5DCAA5" font-size="11" text-anchor="middle">graduates \u2192 catalog</text>
</svg>
